<?xml version="1.0" encoding="utf-8"?>
<!-- Generator: Adobe Illustrator 22.1.0, SVG Export Plug-In . SVG Version: 6.00 Build 0)  -->
<svg version="1.1" baseProfile="tiny" id="Layer_1" xmlns="http://www.w3.org/2000/svg" xmlns:xlink="http://www.w3.org/1999/xlink"
	 x="0px" y="0px" viewBox="0 0 1920 1080" xml:space="preserve">
<g>
	<path d="M225,647.4c-15.4,0-28.8-2.9-40.1-8.6c-11.3-5.7-20.6-13.9-28-24.7c-7.3-10.7-12.8-23.9-16.3-39.5
		c-3.5-15.6-5.3-33.5-5.3-53.5c0-19.8,1.8-37.6,5.3-53.4s8.9-29,16.3-39.7c7.4-10.7,16.7-19,28-24.7c11.3-5.7,24.7-8.6,40.1-8.6
		s28.8,2.9,40.1,8.6c11.3,5.7,20.6,13.9,28,24.7c7.3,10.7,12.8,24,16.3,39.7s5.3,33.5,5.3,53.4c0,20.1-1.8,37.9-5.3,53.5
		c-3.5,15.6-8.9,28.8-16.3,39.5c-7.4,10.7-16.7,19-28,24.7C253.8,644.6,240.4,647.4,225,647.4z M225,615.3
		c17.5,0,29.9-6.6,37.1-19.8c7.2-13.2,10.9-31.2,10.9-53.9v-41.1c0-22.5-3.6-40.3-10.9-53.6c-7.2-13.2-19.6-19.9-37.1-19.9
		s-29.9,6.6-37.1,19.9c-7.2,13.2-10.9,31.1-10.9,53.6v41.5c0,22.5,3.6,40.3,10.9,53.6C195.1,608.6,207.5,615.3,225,615.3z"/>
	<path d="M359.4,643.3V398.9h91.4c23.3,0,41.1,6.5,53.4,19.6s18.4,31,18.4,53.8c0,22.8-6.1,40.7-18.4,53.8s-30,19.6-53.4,19.6h-52.1
		v97.7H359.4z M398.6,513.4h46.2c24.3,0,36.4-11.2,36.4-33.7v-15.1c0-22.3-12.1-33.4-36.4-33.4h-46.2V513.4z"/>
	<path d="M570.1,643.3V398.9h153v32.9H609.3v71h109.5v32.9H609.3v74.6h113.8v32.9H570.1z"/>
	<path d="M812.7,455.3h-3.2v188h-34.3V398.9h50.4l71.8,187.9h3.2V398.9h34.3v244.3h-50.4L812.7,455.3z"/>
	<path d="M1028.3,643.3h-38.8V398.9h91.3c23.3,0,41.1,6.5,53.4,19.6s18.4,31,18.4,53.8c0,18.6-4.5,34-13.7,46.1
		c-9.1,12.1-22.2,19.6-39.2,22.4l56.3,102.5h-43.4l-51.8-99.1h-32.5V643.3z M1075.2,513c24.3,0,36.4-11.1,36.4-33.4v-15.1
		c0-22.3-12.1-33.4-36.4-33.4h-46.9V513H1075.2z"/>
	<path d="M1232.6,455.3h-3.2v188h-34.3V398.9h50.4l71.8,187.9h3.2V398.9h34.3v244.3h-50.4L1232.6,455.3z"/>
	<path d="M1408.7,398.9h72.8c31.3,0,54.4,10.4,69.5,31.1c15.1,20.8,22.6,51.1,22.6,91c0,39.9-7.5,70.2-22.6,91
		c-15,20.8-38.2,31.2-69.5,31.2h-72.8V398.9z M1479,611c18,0,31.3-6,40.1-18c8.8-12,13.1-29.2,13.1-51.6v-40.6
		c0-22.4-4.4-39.6-13.1-51.6c-8.8-12-22.1-18-40.1-18h-31.5V611H1479z"/>
	<path d="M1658.2,643.3h-38.8V398.9h91.3c23.3,0,41.1,6.5,53.4,19.6s18.4,31,18.4,53.8c0,18.6-4.5,34-13.7,46.1
		c-9.1,12.1-22.2,19.6-39.2,22.4l56.3,102.5h-43.4l-51.8-99.1h-32.5V643.3z M1705.1,513c24.3,0,36.4-11.1,36.4-33.4v-15.1
		c0-22.3-12.1-33.4-36.4-33.4h-46.9V513H1705.1z"/>
</g>
</svg>
